<?xml version="1.0" encoding="UTF-8"?>
<svg width="212px" height="51px" viewBox="0 0 212 51" version="1.1" xmlns="http://www.w3.org/2000/svg" xmlns:xlink="http://www.w3.org/1999/xlink">
    <!-- Generator: Sketch 48.2 (47327) - http://www.bohemiancoding.com/sketch -->
    <title>silver-big</title>
    <desc>Created with Sketch.</desc>
    <defs>
        <rect id="path-1" x="3" y="3" width="206" height="45" rx="4"></rect>
        <filter x="-0.7%" y="-3.3%" width="101.5%" height="106.7%" filterUnits="objectBoundingBox" id="filter-2">
            <feOffset dx="0" dy="0" in="SourceAlpha" result="shadowOffsetOuter1"></feOffset>
            <feGaussianBlur stdDeviation="0.5" in="shadowOffsetOuter1" result="shadowBlurOuter1"></feGaussianBlur>
            <feColorMatrix values="0 0 0 0 0   0 0 0 0 0   0 0 0 0 0  0 0 0 0.293789629 0" type="matrix" in="shadowBlurOuter1"></feColorMatrix>
        </filter>
        <path d="M106.5,32.95 C106.446666,32.4366641 106.261668,32.0650012 105.945,31.835 C105.628332,31.6049989 105.223336,31.49 104.73,31.49 C104.529999,31.49 104.333334,31.5099998 104.14,31.55 C103.946666,31.5900002 103.775001,31.6566662 103.625,31.75 C103.474999,31.8433338 103.355,31.9683326 103.265,32.125 C103.175,32.2816675 103.13,32.4766655 103.13,32.71 C103.13,32.9300011 103.194999,33.1083327 103.325,33.245 C103.455001,33.3816674 103.628332,33.4933329 103.845,33.58 C104.061668,33.6666671 104.306665,33.7383331 104.58,33.795 C104.853335,33.851667 105.131665,33.913333 105.415,33.98 C105.698335,34.046667 105.976665,34.1249995 106.25,34.215 C106.523335,34.3050005 106.768332,34.4266659 106.985,34.58 C107.201668,34.7333341 107.374999,34.9266655 107.505,35.16 C107.635001,35.3933345 107.7,35.6866649 107.7,36.04 C107.7,36.4200019 107.615001,36.7449986 107.445,37.015 C107.274999,37.2850014 107.056668,37.5049992 106.79,37.675 C106.523332,37.8450009 106.225002,37.968333 105.895,38.045 C105.564998,38.121667 105.236668,38.16 104.91,38.16 C104.509998,38.16 104.131668,38.1100005 103.775,38.01 C103.418332,37.9099995 103.105001,37.7583343 102.835,37.555 C102.564999,37.3516657 102.351667,37.0916682 102.195,36.775 C102.038333,36.4583317 101.96,36.0833355 101.96,35.65 L102.86,35.65 C102.86,35.9500015 102.918333,36.2083322 103.035,36.425 C103.151667,36.6416677 103.304999,36.8199993 103.495,36.96 C103.685001,37.1000007 103.906665,37.203333 104.16,37.27 C104.413335,37.336667 104.673332,37.37 104.94,37.37 C105.153334,37.37 105.368332,37.3500002 105.585,37.31 C105.801668,37.2699998 105.996666,37.2016672 106.17,37.105 C106.343334,37.0083329 106.483333,36.8766675 106.59,36.71 C106.696667,36.5433325 106.75,36.3300013 106.75,36.07 C106.75,35.8233321 106.685001,35.6233341 106.555,35.47 C106.424999,35.3166659 106.251668,35.1916672 106.035,35.095 C105.818332,34.9983328 105.573335,34.9200003 105.3,34.86 C105.026665,34.7999997 104.748335,34.7383337 104.465,34.675 C104.181665,34.6116664 103.903335,34.5383338 103.63,34.455 C103.356665,34.3716663 103.111668,34.2616673 102.895,34.125 C102.678332,33.9883327 102.505001,33.8116677 102.375,33.595 C102.244999,33.3783322 102.18,33.1066683 102.18,32.78 C102.18,32.4199982 102.253333,32.1083347 102.4,31.845 C102.546667,31.5816654 102.741665,31.3650009 102.985,31.195 C103.228335,31.0249992 103.504998,30.8983338 103.815,30.815 C104.125002,30.7316663 104.443332,30.69 104.77,30.69 C105.136668,30.69 105.476665,30.7333329 105.79,30.82 C106.103335,30.9066671 106.378332,31.0433324 106.615,31.23 C106.851668,31.4166676 107.038333,31.6516653 107.175,31.935 C107.311667,32.2183347 107.386667,32.5566647 107.4,32.95 L106.5,32.95 Z M109.61,31.9 L108.76,31.9 L108.76,30.86 L109.61,30.86 L109.61,31.9 Z M108.76,32.83 L109.61,32.83 L109.61,38 L108.76,38 L108.76,32.83 Z M110.98,30.86 L111.83,30.86 L111.83,38 L110.98,38 L110.98,30.86 Z M115.48,38 L114.57,38 L112.65,32.83 L113.6,32.83 L115.05,37.14 L115.07,37.14 L116.48,32.83 L117.37,32.83 L115.48,38 Z M121.74,34.92 C121.726667,34.719999 121.681667,34.5300009 121.605,34.35 C121.528333,34.1699991 121.425001,34.0150007 121.295,33.885 C121.164999,33.7549994 121.011668,33.6516671 120.835,33.575 C120.658332,33.498333 120.463334,33.46 120.25,33.46 C120.029999,33.46 119.831668,33.498333 119.655,33.575 C119.478332,33.6516671 119.326667,33.756666 119.2,33.89 C119.073333,34.023334 118.973334,34.1783324 118.9,34.355 C118.826666,34.5316676 118.783333,34.719999 118.77,34.92 L121.74,34.92 Z M122.56,36.36 C122.446666,36.9400029 122.196669,37.3766652 121.81,37.67 C121.423331,37.9633348 120.93667,38.11 120.35,38.11 C119.936665,38.11 119.578335,38.043334 119.275,37.91 C118.971665,37.776666 118.716668,37.5900012 118.51,37.35 C118.303332,37.1099988 118.148334,36.823335 118.045,36.49 C117.941666,36.156665 117.883333,35.7933353 117.87,35.4 C117.87,35.0066647 117.929999,34.6466683 118.05,34.32 C118.170001,33.9933317 118.338332,33.7100012 118.555,33.47 C118.771668,33.2299988 119.028332,33.043334 119.325,32.91 C119.621668,32.776666 119.946665,32.71 120.3,32.71 C120.760002,32.71 121.141665,32.804999 121.445,32.995 C121.748335,33.185001 121.991666,33.4266652 122.175,33.72 C122.358334,34.0133348 122.485,34.3333316 122.555,34.68 C122.625,35.0266684 122.653333,35.3566651 122.64,35.67 L118.77,35.67 C118.763333,35.8966678 118.79,36.1116657 118.85,36.315 C118.91,36.5183344 119.006666,36.6983326 119.14,36.855 C119.273334,37.0116675 119.443332,37.1366662 119.65,37.23 C119.856668,37.3233338 120.099999,37.37 120.38,37.37 C120.740002,37.37 121.034999,37.2866675 121.265,37.12 C121.495001,36.9533325 121.646666,36.7000017 121.72,36.36 L122.56,36.36 Z M123.49,32.83 L124.29,32.83 L124.29,33.92 L124.31,33.92 C124.516668,33.4999979 124.769998,33.190001 125.07,32.99 C125.370001,32.789999 125.749998,32.6966666 126.21,32.71 L126.21,33.61 C125.869998,33.61 125.580001,33.6566662 125.34,33.75 C125.099999,33.8433338 124.906667,33.9799991 124.76,34.16 C124.613333,34.3400009 124.506667,34.5583321 124.44,34.815 C124.373333,35.071668 124.34,35.366665 124.34,35.7 L124.34,38 L123.49,38 L123.49,32.83 Z M129.63,32.83 L130.43,32.83 L130.43,33.59 L130.45,33.59 C130.836669,33.0033304 131.39333,32.71 132.12,32.71 C132.440002,32.71 132.729999,32.776666 132.99,32.91 C133.250001,33.043334 133.433333,33.2699984 133.54,33.59 C133.713334,33.3099986 133.941665,33.0933341 134.225,32.94 C134.508335,32.7866659 134.819998,32.71 135.16,32.71 C135.420001,32.71 135.654999,32.7383331 135.865,32.795 C136.075001,32.851667 136.254999,32.9399994 136.405,33.06 C136.555001,33.1800006 136.671666,33.3349991 136.755,33.525 C136.838334,33.715001 136.88,33.943332 136.88,34.21 L136.88,38 L136.03,38 L136.03,34.61 C136.03,34.4499992 136.016667,34.3000007 135.99,34.16 C135.963333,34.0199993 135.913334,33.8983339 135.84,33.795 C135.766666,33.6916662 135.665001,33.6100003 135.535,33.55 C135.404999,33.4899997 135.236668,33.46 135.03,33.46 C134.609998,33.46 134.280001,33.5799988 134.04,33.82 C133.799999,34.0600012 133.68,34.379998 133.68,34.78 L133.68,38 L132.83,38 L132.83,34.61 C132.83,34.4433325 132.815,34.2900007 132.785,34.15 C132.755,34.0099993 132.703334,33.8883339 132.63,33.785 C132.556666,33.6816661 132.458334,33.601667 132.335,33.545 C132.211666,33.4883331 132.053334,33.46 131.86,33.46 C131.613332,33.46 131.401668,33.5099995 131.225,33.61 C131.048332,33.7100005 130.905001,33.8299993 130.795,33.97 C130.684999,34.1100007 130.605,34.2549992 130.555,34.405 C130.505,34.5550008 130.48,34.6799995 130.48,34.78 L130.48,38 L129.63,38 L129.63,32.83 Z M141.75,34.92 C141.736667,34.719999 141.691667,34.5300009 141.615,34.35 C141.538333,34.1699991 141.435001,34.0150007 141.305,33.885 C141.174999,33.7549994 141.021668,33.6516671 140.845,33.575 C140.668332,33.498333 140.473334,33.46 140.26,33.46 C140.039999,33.46 139.841668,33.498333 139.665,33.575 C139.488332,33.6516671 139.336667,33.756666 139.21,33.89 C139.083333,34.023334 138.983334,34.1783324 138.91,34.355 C138.836666,34.5316676 138.793333,34.719999 138.78,34.92 L141.75,34.92 Z M142.57,36.36 C142.456666,36.9400029 142.206669,37.3766652 141.82,37.67 C141.433331,37.9633348 140.94667,38.11 140.36,38.11 C139.946665,38.11 139.588335,38.043334 139.285,37.91 C138.981665,37.776666 138.726668,37.5900012 138.52,37.35 C138.313332,37.1099988 138.158334,36.823335 138.055,36.49 C137.951666,36.156665 137.893333,35.7933353 137.88,35.4 C137.88,35.0066647 137.939999,34.6466683 138.06,34.32 C138.180001,33.9933317 138.348332,33.7100012 138.565,33.47 C138.781668,33.2299988 139.038332,33.043334 139.335,32.91 C139.631668,32.776666 139.956665,32.71 140.31,32.71 C140.770002,32.71 141.151665,32.804999 141.455,32.995 C141.758335,33.185001 142.001666,33.4266652 142.185,33.72 C142.368334,34.0133348 142.495,34.3333316 142.565,34.68 C142.635,35.0266684 142.663333,35.3566651 142.65,35.67 L138.78,35.67 C138.773333,35.8966678 138.8,36.1116657 138.86,36.315 C138.92,36.5183344 139.016666,36.6983326 139.15,36.855 C139.283334,37.0116675 139.453332,37.1366662 139.66,37.23 C139.866668,37.3233338 140.109999,37.37 140.39,37.37 C140.750002,37.37 141.044999,37.2866675 141.275,37.12 C141.505001,36.9533325 141.656666,36.7000017 141.73,36.36 L142.57,36.36 Z M144.15,35.46 C144.15,35.7000012 144.181666,35.9349988 144.245,36.165 C144.308334,36.3950011 144.404999,36.5999991 144.535,36.78 C144.665001,36.9600009 144.831666,37.1033328 145.035,37.21 C145.238334,37.3166672 145.476665,37.37 145.75,37.37 C146.036668,37.37 146.279999,37.3133339 146.48,37.2 C146.680001,37.0866661 146.843333,36.9383342 146.97,36.755 C147.096667,36.5716658 147.188333,36.3633345 147.245,36.13 C147.301667,35.8966655 147.33,35.6600012 147.33,35.42 C147.33,35.1666654 147.3,34.9216679 147.24,34.685 C147.18,34.4483321 147.085001,34.2400009 146.955,34.06 C146.824999,33.8799991 146.656668,33.7350006 146.45,33.625 C146.243332,33.5149995 145.993335,33.46 145.7,33.46 C145.413332,33.46 145.170001,33.5166661 144.97,33.63 C144.769999,33.7433339 144.610001,33.8933324 144.49,34.08 C144.369999,34.2666676 144.283334,34.4799988 144.23,34.72 C144.176666,34.9600012 144.15,35.2066654 144.15,35.46 Z M148.15,38 L147.3,38 L147.3,37.3 L147.28,37.3 C147.139999,37.5866681 146.920002,37.7933327 146.62,37.92 C146.319998,38.0466673 145.990002,38.11 145.63,38.11 C145.229998,38.11 144.881668,38.0366674 144.585,37.89 C144.288332,37.7433326 144.041668,37.5466679 143.845,37.3 C143.648332,37.0533321 143.5,36.7666683 143.4,36.44 C143.3,36.1133317 143.25,35.7666685 143.25,35.4 C143.25,35.0333315 143.298333,34.6866683 143.395,34.36 C143.491667,34.0333317 143.638332,33.7483346 143.835,33.505 C144.031668,33.2616655 144.278332,33.0683341 144.575,32.925 C144.871668,32.781666 145.216665,32.71 145.61,32.71 C145.743334,32.71 145.886666,32.7233332 146.04,32.75 C146.193334,32.7766668 146.346666,32.8216664 146.5,32.885 C146.653334,32.9483337 146.798333,33.0316662 146.935,33.135 C147.071667,33.2383339 147.186666,33.3666659 147.28,33.52 L147.3,33.52 L147.3,30.86 L148.15,30.86 L148.15,38 Z M154.04,37.98 C153.893333,38.0666671 153.690001,38.11 153.43,38.11 C153.209999,38.11 153.035001,38.0483339 152.905,37.925 C152.774999,37.8016661 152.71,37.6000014 152.71,37.32 C152.476665,37.6000014 152.205002,37.8016661 151.895,37.925 C151.584998,38.0483339 151.250002,38.11 150.89,38.11 C150.656665,38.11 150.435001,38.0833336 150.225,38.03 C150.014999,37.9766664 149.833334,37.8933339 149.68,37.78 C149.526666,37.6666661 149.405,37.5183342 149.315,37.335 C149.225,37.1516658 149.18,36.9300013 149.18,36.67 C149.18,36.3766652 149.229999,36.1366676 149.33,35.95 C149.430001,35.7633324 149.561666,35.6116672 149.725,35.495 C149.888334,35.3783327 150.074999,35.2900003 150.285,35.23 C150.495001,35.1699997 150.709999,35.1200002 150.93,35.08 C151.163334,35.0333331 151.384999,34.9983335 151.595,34.975 C151.805001,34.9516665 151.989999,34.9183335 152.15,34.875 C152.310001,34.8316665 152.436666,34.7683337 152.53,34.685 C152.623334,34.6016663 152.67,34.4800008 152.67,34.32 C152.67,34.1333324 152.635,33.9833339 152.565,33.87 C152.495,33.7566661 152.405001,33.6700003 152.295,33.61 C152.184999,33.5499997 152.061667,33.5100001 151.925,33.49 C151.788333,33.4699999 151.653334,33.46 151.52,33.46 C151.159998,33.46 150.860001,33.5283326 150.62,33.665 C150.379999,33.8016674 150.25,34.0599981 150.23,34.44 L149.38,34.44 C149.393333,34.1199984 149.459999,33.8500011 149.58,33.63 C149.700001,33.4099989 149.859999,33.2316674 150.06,33.095 C150.260001,32.9583327 150.488332,32.8600003 150.745,32.8 C151.001668,32.7399997 151.276665,32.71 151.57,32.71 C151.803334,32.71 152.034999,32.7266665 152.265,32.76 C152.495001,32.7933335 152.703332,32.8616661 152.89,32.965 C153.076668,33.0683339 153.226666,33.2133324 153.34,33.4 C153.453334,33.5866676 153.51,33.8299985 153.51,34.13 L153.51,36.79 C153.51,36.990001 153.521667,37.1366662 153.545,37.23 C153.568333,37.3233338 153.646666,37.37 153.78,37.37 C153.853334,37.37 153.939999,37.3533335 154.04,37.32 L154.04,37.98 Z M152.66,35.33 C152.553333,35.4100004 152.413334,35.4683332 152.24,35.505 C152.066666,35.5416668 151.885001,35.5716666 151.695,35.595 C151.504999,35.6183335 151.313334,35.6449999 151.12,35.675 C150.926666,35.7050002 150.753334,35.753333 150.6,35.82 C150.446666,35.886667 150.321667,35.9816661 150.225,36.105 C150.128333,36.228334 150.08,36.3966656 150.08,36.61 C150.08,36.7500007 150.108333,36.8683329 150.165,36.965 C150.221667,37.0616672 150.295,37.1399997 150.385,37.2 C150.475,37.2600003 150.579999,37.3033332 150.7,37.33 C150.820001,37.3566668 150.946666,37.37 151.08,37.37 C151.360001,37.37 151.599999,37.3316671 151.8,37.255 C152.000001,37.1783329 152.163333,37.0816672 152.29,36.965 C152.416667,36.8483327 152.51,36.7216674 152.57,36.585 C152.63,36.4483326 152.66,36.3200006 152.66,36.2 L152.66,35.33 Z M154.88,30.86 L155.73,30.86 L155.73,38 L154.88,38 L154.88,30.86 Z" id="path-3"></path>
        <filter x="-3.7%" y="-13.4%" width="107.4%" height="153.5%" filterUnits="objectBoundingBox" id="filter-4">
            <feOffset dx="0" dy="1" in="SourceAlpha" result="shadowOffsetOuter1"></feOffset>
            <feGaussianBlur stdDeviation="0.5" in="shadowOffsetOuter1" result="shadowBlurOuter1"></feGaussianBlur>
            <feColorMatrix values="0 0 0 0 0   0 0 0 0 0   0 0 0 0 0  0 0 0 0.208814538 0" type="matrix" in="shadowBlurOuter1"></feColorMatrix>
        </filter>
    </defs>
    <g id="Page-1" stroke="none" stroke-width="1" fill="none" fill-rule="evenodd">
        <g id="silver-big">
            <g id="Rectangle">
                <use fill="black" fill-opacity="1" filter="url(#filter-2)" xlink:href="#path-1"></use>
                <use fill="#FFFFFF" fill-rule="evenodd" xlink:href="#path-1"></use>
            </g>
            <path d="M29.0966308,35.9521987 L29.0966308,35.3402923 C29.0966308,35.3402923 29.0967749,35.3402923 29.0967749,35.3402923 C29.2731284,35.3402923 29.4421339,35.4103151 29.5667628,35.534944 C29.6913917,35.6595729 29.7614144,35.8285784 29.7614144,36.0047878 C29.7614144,37.3519327 29.7614144,40.2780468 29.7614144,40.2780468 C29.7614144,41.7761873 29.086113,43 27.239732,43 C26.5328771,43 25.8892732,42.7995852 25.6149455,42.7151545 C25.6149455,42.7151545 25.6149455,42.7151545 25.6205646,42.7154426 C25.6325232,42.566032 25.7114789,42.4300208 25.8355315,42.3457342 C25.95944,42.2615917 26.114902,42.2381067 26.2582613,42.282051 C26.5671681,42.3723889 26.9105099,42.430309 27.2502498,42.430309 C28.959467,42.430309 29.1071486,41.1853165 29.1071486,39.6659964 L29.086113,39.6659964 C28.7273546,40.4467641 28.136628,40.7210918 27.4508087,40.7210918 C25.7310737,40.7210918 25.1824183,39.2229514 25.1824183,38.0306921 C25.1824183,36.3953878 25.8153604,35.2136463 27.3980756,35.2136463 C28.1154483,35.2136463 28.579673,35.3085948 29.0755952,35.9521987 L29.0966308,35.9521987 Z M19.805365,40.5944458 C20.2802516,40.7844869 20.7972094,40.8477378 21.3141673,40.8477378 C22.1264885,40.8477378 23.1921017,40.4572819 23.1921017,39.3178999 C23.1921017,37.5559496 20.5439174,37.6825956 20.5439174,36.6802333 C20.5439174,35.9944141 21.018804,35.7834814 21.7044791,35.7834814 C21.9089282,35.7834814 22.145507,35.8125855 22.37517,35.8653187 C22.5074351,35.896728 22.6466161,35.8697851 22.7577015,35.7915499 C22.8686429,35.7131705 22.9406827,35.590991 22.9553788,35.4559883 C22.9599894,35.4564206 22.9599894,35.4564206 22.9599894,35.4564206 C22.4852469,35.2770414 21.9155558,35.2136463 21.6307103,35.2136463 C20.7444763,35.2136463 19.8792778,35.61462 19.8792778,36.6802333 C19.8792778,38.2417688 22.4642112,38.0412099 22.4642112,39.3178999 C22.4642112,39.9298062 21.905038,40.2780468 21.2719519,40.2780468 C20.9836485,40.2780468 20.7049984,40.2352552 20.4455109,40.1627831 C20.3030161,40.1220085 20.1495713,40.1467902 20.0271036,40.2302124 C19.9044918,40.3137786 19.825392,40.4473404 19.8111281,40.5950221 C19.805365,40.5944458 19.805365,40.5944458 19.805365,40.5944458 Z M35.7742914,35.3402923 L35.7742914,33.9376767 C35.7742914,33.9376767 35.7742914,33.9376767 35.7742914,33.9376767 C35.9493482,33.934507 36.1184978,34.0017922 36.2435589,34.1245481 C36.368476,34.2473039 36.438931,34.4151568 36.438931,34.5903576 C36.438931,34.9576167 36.438931,35.3402923 36.438931,35.3402923 L37.6627437,35.3402923 C37.6627437,35.3402923 37.6627437,35.3404364 37.6627437,35.3404364 C37.6627437,35.491576 37.6028066,35.6363761 37.4958994,35.7432832 C37.3891364,35.8500462 37.2443363,35.9099834 37.0931968,35.9099834 C36.7737721,35.9099834 36.438931,35.9099834 36.438931,35.9099834 L36.438931,39.3916687 C36.438931,39.8770731 36.6183102,40.2780468 37.1563037,40.2780468 C37.2071638,40.2780468 37.254566,40.2758856 37.2992307,40.2691139 C37.4244359,40.2574434 37.5489208,40.2963449 37.645166,40.3773177 C37.7412671,40.4582905 37.800772,40.5745628 37.8104254,40.6999121 C37.8104254,40.6999121 37.8104254,40.7000562 37.8104254,40.7000562 C37.6522259,40.7633072 37.325165,40.8477378 36.9981042,40.8477378 C35.8163627,40.8477378 35.7742914,40.0352726 35.7742914,39.05409 L35.7742914,35.9099834 L35.5189822,35.9099834 C35.3678427,35.9099834 35.2230426,35.8500462 35.1161355,35.7432832 C35.0093724,35.6363761 34.9494353,35.491576 34.9494353,35.3404364 L34.9494353,35.3402923 L35.7742914,35.3402923 Z M13.4511632,40.7210918 C13.4511632,40.7210918 13.4511632,40.7210918 13.4511632,40.7210918 C13.64423,40.7210918 13.8293724,40.6444414 13.9659599,40.5078539 C14.1024033,40.3714104 14.1790537,40.1862681 14.1790537,39.9932013 C14.1790537,38.5832376 14.1790537,35.4946017 14.1790537,34.084638 C14.1790537,33.8915712 14.1024033,33.7064289 13.9659599,33.5699854 C13.8293724,33.433542 13.64423,33.3567475 13.4511632,33.3567475 C13.4511632,33.3567475 13.4511632,33.3567475 13.4511632,33.3567475 L13.4511632,40.7210918 Z M15.6215794,36.3004393 C15.8431739,35.8150349 16.2441477,35.2136463 17.3624941,35.2136463 C18.6919172,35.2136463 19.1983573,36.1000245 19.1983573,37.2816219 C19.1983573,37.2816219 19.1983573,39.0568275 19.1983573,40.0565964 C19.1983573,40.2328058 19.1283346,40.4018113 19.0037057,40.5264402 C18.8790767,40.6510691 18.7100713,40.7210918 18.5337178,40.7210918 C18.5337178,40.7210918 18.5335737,40.7210918 18.5335737,40.7210918 L18.5335737,37.4504832 C18.5335737,36.4376031 18.1748153,35.7834814 17.2570278,35.7834814 C16.0437328,35.7834814 15.6637948,36.8490947 15.6637948,37.7458466 C15.6637948,37.7458466 15.6637948,39.1797275 15.6637948,40.0565964 C15.6637948,40.2328058 15.593772,40.4018113 15.4691431,40.5264402 C15.3446583,40.6510691 15.1755087,40.7210918 14.9992993,40.7210918 C14.9991552,40.7210918 14.9991552,40.7210918 14.9991552,40.7210918 L14.9992993,35.3402923 C14.9992993,35.3402923 14.9992993,35.3402923 14.9994434,35.3402923 C15.1587955,35.3402923 15.311664,35.4036874 15.4244784,35.5163577 C15.5371487,35.6291721 15.6005438,35.7820406 15.6005438,35.9413927 C15.6005438,36.1350358 15.6005438,36.3004393 15.6005438,36.3004393 L15.6215794,36.3004393 Z M24.492709,35.3402923 L24.492709,40.0565964 C24.492709,40.2328058 24.4226862,40.4018113 24.2982014,40.5264402 C24.1735725,40.6510691 24.004567,40.7210918 23.8282135,40.7210918 C23.8280694,40.7210918 23.8280694,40.7210918 23.8280694,40.7210918 L23.8280694,35.3402923 L24.492709,35.3402923 Z M31.2354936,36.2477061 C31.5204832,35.6568354 32.1218717,35.2136463 32.9131573,35.2136463 C34.3585646,35.2136463 34.7488764,36.1737933 34.7488764,37.5032164 C34.7488764,37.5032164 34.7488764,39.1143153 34.7488764,40.0565964 C34.7488764,40.2328058 34.6788537,40.4018113 34.5542248,40.5264402 C34.4295958,40.6510691 34.2605904,40.7210918 34.0843809,40.7210918 C34.0842369,40.7210918 34.0842369,40.7210918 34.0842369,40.7210918 L34.0842369,37.5137342 C34.0842369,36.5852848 33.9048577,35.7834814 32.8075469,35.7834814 C31.6259495,35.7834814 31.2144579,36.9018278 31.2144579,37.8407951 C31.2144579,37.8407951 31.2144579,39.20595 31.2144579,40.0565964 C31.2144579,40.4235673 30.9169334,40.7210918 30.5499625,40.7210918 C30.5498184,40.7210918 30.5498184,40.7210918 30.5498184,40.7210918 L30.5498184,32.8082362 C30.5498184,32.8082362 30.5498184,32.8082362 30.5499625,32.8082362 C30.7261719,32.8082362 30.8951774,32.8781148 31.0198063,33.0027437 C31.1444352,33.1273726 31.2144579,33.2963781 31.2144579,33.4727316 C31.2144579,34.4723564 31.2144579,36.2477061 31.2144579,36.2477061 L31.2354936,36.2477061 Z M24.547027,34.1121572 C24.547027,34.0131745 24.5075492,33.9180819 24.4375264,33.8479151 C24.3675037,33.7778924 24.2724111,33.7385586 24.1732843,33.7385586 C24.1731402,33.7385586 24.1731402,33.7385586 24.1729962,33.7385586 C24.0738693,33.7385586 23.9787768,33.7778924 23.908754,33.8479151 C23.8387313,33.9180819 23.7992535,34.0131745 23.7992535,34.1121572 C23.7992535,34.1199375 23.7992535,34.1275737 23.7992535,34.13521 C23.7992535,34.2343368 23.8387313,34.3292853 23.908754,34.3994521 C23.9787768,34.4694748 24.0738693,34.5088086 24.1729962,34.5088086 C24.1731402,34.5088086 24.1731402,34.5088086 24.1732843,34.5088086 C24.2724111,34.5088086 24.3675037,34.4694748 24.4375264,34.3994521 C24.5075492,34.3292853 24.547027,34.2343368 24.547027,34.13521 C24.547027,34.1275737 24.547027,34.1199375 24.547027,34.1121572 Z M42.8377974,28.7483591 L8.4243675,28.7483591 C8.37321922,28.7449012 8.35967573,28.7464861 8.30996824,28.7326545 C8.1422595,28.6856845 8.01287596,28.5276291 8.00091734,28.3528604 C7.99039953,28.1985511 8.07108415,28.0419365 8.2039256,27.9611078 C8.25348901,27.9309952 8.30910376,27.9112562 8.36659155,27.9033319 C8.38575415,27.9005944 8.40520491,27.9005944 8.4243675,27.8992976 L11.655066,27.8992976 C10.5043017,26.7757643 10.3161336,25.4162285 10.5875797,24.5331642 C10.9493638,23.3597794 11.8819915,23.1380408 12.7940158,23.4178435 C13.7707319,23.7198345 14.1529753,24.9066187 13.8736048,25.8177786 C13.8424836,25.9153205 13.792632,26.0778424 13.6900473,26.2966994 C13.5766566,26.5471099 13.3665884,26.7681281 13.2766827,27.0617625 C13.1768355,27.386374 13.324229,27.668482 13.579106,27.8992976 L17.5108962,27.8992976 C17.7947331,27.6297246 18.0075388,27.2986295 18.1207854,26.9282006 C18.4729161,25.791412 17.7536704,24.9978212 17.4558577,24.6932368 L16.0072807,23.1426513 C15.3448024,22.4049634 13.8874365,20.3477938 14.5983256,18.0376203 C14.8726533,17.1466316 15.4498364,16.2017571 16.2875157,15.5763073 C18.0560936,14.2584105 19.978981,14.0420028 21.8096573,14.56847 C24.1794797,15.2498227 25.3175651,16.816401 26.7933732,18.0271025 C27.6196701,15.6039706 28.7648153,13.2316988 30.4868556,11.2299999 C32.0420516,9.40710384 34.1316391,8.08589324 36.5249465,8.00405599 C38.9160928,7.92495625 40.7237164,9.00886763 40.7833653,10.7245684 C40.8074266,11.4546201 40.388587,12.8742371 38.9299244,12.9233683 C37.8389531,12.9611171 37.0857046,12.3091566 37.0517018,11.3190411 C37.039455,10.9559603 37.1332509,10.6384087 37.3819324,10.2671154 C37.6251389,9.79107617 37.6771517,9.73646998 37.6709562,9.52942749 C37.6490561,8.90513026 36.7067751,8.88207752 36.4488725,8.89418021 C32.9120046,9.01102882 31.9798092,13.7841002 31.2241113,17.6650303 L30.8539706,19.7116821 C32.8906809,20.0094947 34.3366645,19.6423797 35.1432225,19.1206672 C36.2787144,18.3834116 34.8255268,17.6259847 35.0087961,16.7878733 C35.1943707,15.9333367 35.9716806,15.5208366 36.5892061,15.503547 C37.4536841,15.4822233 38.0707773,16.3791192 38.0507503,17.2894146 C38.0196291,18.7941827 36.0236933,20.8615819 32.0306693,20.7770072 C31.5442563,20.7657689 31.0967448,20.7317661 30.679202,20.6813383 L29.9259534,24.8394776 C29.7261149,25.7728257 29.5066816,26.807606 29.2134794,27.8992976 L42.8377974,27.8992976 L42.8955733,27.9033319 C42.9145919,27.907222 42.9337545,27.9098154 42.9523407,27.9150023 C43.101175,27.9567854 43.2217697,28.0853045 43.2534673,28.2374526 C43.2926569,28.4259088 43.1871906,28.6349684 43.0069469,28.7132037 C42.9715033,28.7286202 42.9340426,28.739138 42.8955733,28.7443249 C42.8765548,28.7470624 42.8571041,28.7470624 42.8377974,28.7483591 Z M24.5274322,27.8992976 C24.5950055,27.5559558 24.6631552,27.2031047 24.7323134,26.840312 L24.9735028,25.3776152 C25.3658318,23.416979 25.8006642,21.2302818 26.4635748,19.0517972 C24.8553575,17.8409516 23.8921849,16.3399295 21.7291167,15.7535253 C20.2465369,15.3511108 19.3428692,15.6925796 18.7073338,16.496256 C17.9549497,17.4477582 18.2047839,18.686267 18.9316658,19.4125727 L20.132714,20.7414195 C21.6054964,22.4427123 22.4104695,23.7669485 22.107614,25.5476292 C21.9600765,26.4204639 21.5386434,27.230912 20.9095916,27.8992976 L24.5274322,27.8992976 Z" id="Shape" fill="#000000" fill-rule="nonzero"></path>
            <path d="M25.9104529,38.0306921 C25.9104529,36.9862585 26.2375138,35.7834814 27.5035419,35.7834814 C28.7168368,35.7834814 29.0966308,36.7329665 29.0966308,38.0306921 C29.0966308,39.0118747 28.6641036,40.1514008 27.4613265,40.1514008 C26.3324623,40.1514008 25.9104529,39.0857875 25.9104529,38.0306921 Z" id="Path" fill="#FFFFFF"></path>
            <path d="M95.714,12.88 C95.6979999,12.5119982 95.6200007,12.1920014 95.48,11.92 C95.3399993,11.6479986 95.1500012,11.4200009 94.91,11.236 C94.6699988,11.0519991 94.3840017,10.9140005 94.052,10.822 C93.7199984,10.7299995 93.358002,10.684 92.966,10.684 C92.7259988,10.684 92.4680014,10.7119997 92.192,10.768 C91.9159986,10.8240003 91.6600012,10.9219993 91.424,11.062 C91.1879988,11.2020007 90.9940008,11.3899988 90.842,11.626 C90.6899993,11.8620012 90.614,12.1559982 90.614,12.508 C90.614,12.8520017 90.6979992,13.1319989 90.866,13.348 C91.0340009,13.5640011 91.2539987,13.7379993 91.526,13.87 C91.7980014,14.0020007 92.1099983,14.1079996 92.462,14.188 C92.8140018,14.2680004 93.1699982,14.3439996 93.53,14.416 C93.8980019,14.4880004 94.2559983,14.5739995 94.604,14.674 C94.9520018,14.7740005 95.2639986,14.9099991 95.54,15.082 C95.8160014,15.2540009 96.0379992,15.4779986 96.206,15.754 C96.3740009,16.0300014 96.458,16.3759979 96.458,16.792 C96.458,17.2400022 96.362001,17.6159985 96.17,17.92 C95.9779991,18.2240015 95.7360015,18.471999 95.444,18.664 C95.1519986,18.856001 94.8280018,18.9939996 94.472,19.078 C94.1159982,19.1620004 93.7740017,19.204 93.446,19.204 C92.9419975,19.204 92.4700022,19.1500005 92.03,19.042 C91.5899978,18.9339995 91.2060017,18.7580012 90.878,18.514 C90.5499984,18.2699988 90.292001,17.9560019 90.104,17.572 C89.9159991,17.1879981 89.826,16.7200028 89.834,16.168 L90.362,16.168 C90.3379999,16.6400024 90.4059992,17.0379984 90.566,17.362 C90.7260008,17.6860016 90.9479986,17.951999 91.232,18.16 C91.5160014,18.368001 91.8499981,18.5179995 92.234,18.61 C92.6180019,18.7020005 93.0219979,18.748 93.446,18.748 C93.7020013,18.748 93.9759986,18.7160003 94.268,18.652 C94.5600015,18.5879997 94.8279988,18.4800008 95.072,18.328 C95.3160012,18.1759992 95.5199992,17.9760012 95.684,17.728 C95.8480008,17.4799988 95.93,17.1680019 95.93,16.792 C95.93,16.4319982 95.8460009,16.1380011 95.678,15.91 C95.5099992,15.6819989 95.2880014,15.4980007 95.012,15.358 C94.7359986,15.2179993 94.4240018,15.1060004 94.076,15.022 C93.7279983,14.9379996 93.3700019,14.8600004 93.002,14.788 C92.6419982,14.7159996 92.2860018,14.6320005 91.934,14.536 C91.5819983,14.4399995 91.2700014,14.3100008 90.998,14.146 C90.7259987,13.9819992 90.5060009,13.7700013 90.338,13.51 C90.1699992,13.2499987 90.086,12.916002 90.086,12.508 C90.086,12.099998 90.1719992,11.7500015 90.344,11.458 C90.5160009,11.1659985 90.7399986,10.9300009 91.016,10.75 C91.2920014,10.5699991 91.6019983,10.4380004 91.946,10.354 C92.2900017,10.2699996 92.6299983,10.228 92.966,10.228 C93.4140023,10.228 93.8319981,10.2779995 94.22,10.378 C94.608002,10.4780005 94.9479986,10.6339989 95.24,10.846 C95.5320015,11.0580011 95.7659991,11.3319983 95.942,11.668 C96.1180009,12.0040017 96.2179999,12.4079976 96.242,12.88 L95.714,12.88 Z M96.606,12.832 L97.146,12.832 L99.438,18.46 L101.55,12.832 L102.066,12.832 L99.426,19.66 C99.2979994,19.9640015 99.1800006,20.2259989 99.072,20.446 C98.9639995,20.6660011 98.8420007,20.8279995 98.706,20.932 C98.5459992,21.0600006 98.3560011,21.1379999 98.136,21.166 C97.9159989,21.1940001 97.6260018,21.208 97.266,21.208 L97.266,20.812 C97.5940017,20.812 97.8499991,20.7860003 98.034,20.734 C98.2180009,20.6819997 98.3899992,20.5760008 98.55,20.416 C98.6380005,20.3279996 98.7299995,20.1660012 98.826,19.93 C98.9220005,19.6939988 99.0419993,19.372002 99.186,18.964 L96.606,12.832 Z M102.49,12.832 L102.946,12.832 L102.946,14.092 L102.97,14.092 C103.018,13.899999 103.101999,13.7180009 103.222,13.546 C103.342001,13.3739991 103.487999,13.2240006 103.66,13.096 C103.832001,12.9679994 104.023999,12.8680004 104.236,12.796 C104.448001,12.7239996 104.669999,12.688 104.902,12.688 C105.198001,12.688 105.453999,12.7259996 105.67,12.802 C105.886001,12.8780004 106.069999,12.9779994 106.222,13.102 C106.374001,13.2260006 106.494,13.3659992 106.582,13.522 C106.67,13.6780008 106.73,13.8359992 106.762,13.996 L106.786,13.996 C106.970001,13.5639978 107.215998,13.2380011 107.524,13.018 C107.832002,12.7979989 108.237997,12.688 108.742,12.688 C109.022001,12.688 109.279999,12.7299996 109.516,12.814 C109.752001,12.8980004 109.955999,13.0259991 110.128,13.198 C110.300001,13.3700009 110.434,13.5879987 110.53,13.852 C110.626,14.1160013 110.674,14.4279982 110.674,14.788 L110.674,19 L110.218,19 L110.218,14.776 C110.218,14.383998 110.158001,14.0760011 110.038,13.852 C109.917999,13.6279989 109.776001,13.4580006 109.612,13.342 C109.447999,13.2259994 109.284001,13.1540001 109.12,13.126 C108.955999,13.0979999 108.83,13.084 108.742,13.084 C108.461999,13.084 108.204001,13.1319995 107.968,13.228 C107.731999,13.3240005 107.528001,13.467999 107.356,13.66 C107.183999,13.852001 107.05,14.0899986 106.954,14.374 C106.858,14.6580014 106.81,14.9839982 106.81,15.352 L106.81,19 L106.354,19 L106.354,14.776 C106.354,14.3919981 106.296001,14.0860011 106.18,13.858 C106.063999,13.6299989 105.928001,13.4600006 105.772,13.348 C105.615999,13.2359994 105.456001,13.1640002 105.292,13.132 C105.127999,13.0999998 104.998,13.084 104.902,13.084 C104.685999,13.084 104.462001,13.1279996 104.23,13.216 C103.997999,13.3040004 103.786001,13.4399991 103.594,13.624 C103.401999,13.8080009 103.246001,14.0439986 103.126,14.332 C103.005999,14.6200014 102.946,14.959998 102.946,15.352 L102.946,19 L102.49,19 L102.49,12.832 Z M111.158,13.228 L111.158,12.832 L112.262,12.832 L112.262,11.56 C112.262,11.3439989 112.298,11.1580008 112.37,11.002 C112.442,10.8459992 112.539999,10.7200005 112.664,10.624 C112.788001,10.5279995 112.931999,10.4560002 113.096,10.408 C113.260001,10.3599998 113.433999,10.336 113.618,10.336 C113.754001,10.336 113.933999,10.3559998 114.158,10.396 L114.158,10.792 C113.933999,10.7519998 113.754001,10.732 113.618,10.732 C113.361999,10.732 113.148001,10.7899994 112.976,10.906 C112.803999,11.0220006 112.718,11.2519983 112.718,11.596 L112.718,12.832 L114.002,12.832 L114.002,13.228 L112.718,13.228 L112.718,19 L112.262,19 L112.262,13.228 L111.158,13.228 Z M114.234,15.916 C114.234,15.4759978 114.295999,15.0620019 114.42,14.674 C114.544001,14.2859981 114.725999,13.9440015 114.966,13.648 C115.206001,13.3519985 115.501998,13.1180009 115.854,12.946 C116.206002,12.7739991 116.609998,12.688 117.066,12.688 C117.522002,12.688 117.925998,12.7739991 118.278,12.946 C118.630002,13.1180009 118.925999,13.3519985 119.166,13.648 C119.406001,13.9440015 119.587999,14.2859981 119.712,14.674 C119.836001,15.0620019 119.898,15.4759978 119.898,15.916 C119.898,16.3560022 119.836001,16.771998 119.712,17.164 C119.587999,17.556002 119.406001,17.8979985 119.166,18.19 C118.925999,18.4820015 118.630002,18.7139991 118.278,18.886 C117.925998,19.0580009 117.522002,19.144 117.066,19.144 C116.609998,19.144 116.206002,19.0580009 115.854,18.886 C115.501998,18.7139991 115.206001,18.4820015 114.966,18.19 C114.725999,17.8979985 114.544001,17.556002 114.42,17.164 C114.295999,16.771998 114.234,16.3560022 114.234,15.916 Z M114.69,15.916 C114.69,16.2840018 114.741999,16.6379983 114.846,16.978 C114.950001,17.3180017 115.101999,17.6199987 115.302,17.884 C115.502001,18.1480013 115.749999,18.3579992 116.046,18.514 C116.342001,18.6700008 116.681998,18.748 117.066,18.748 C117.450002,18.748 117.789999,18.6700008 118.086,18.514 C118.382001,18.3579992 118.629999,18.1480013 118.83,17.884 C119.030001,17.6199987 119.181999,17.3180017 119.286,16.978 C119.390001,16.6379983 119.442,16.2840018 119.442,15.916 C119.442,15.5479982 119.390001,15.1940017 119.286,14.854 C119.181999,14.5139983 119.030001,14.2120013 118.83,13.948 C118.629999,13.6839987 118.382001,13.4740008 118.086,13.318 C117.789999,13.1619992 117.450002,13.084 117.066,13.084 C116.681998,13.084 116.342001,13.1619992 116.046,13.318 C115.749999,13.4740008 115.502001,13.6839987 115.302,13.948 C115.101999,14.2120013 114.950001,14.5139983 114.846,14.854 C114.741999,15.1940017 114.69,15.5479982 114.69,15.916 Z M120.766,12.832 L121.222,12.832 L121.222,14.152 L121.246,14.152 C121.326,13.9199988 121.439999,13.7140009 121.588,13.534 C121.736001,13.3539991 121.907999,13.2000006 122.104,13.072 C122.300001,12.9439994 122.513999,12.8480003 122.746,12.784 C122.978001,12.7199997 123.213999,12.688 123.454,12.688 C123.814002,12.688 124.119999,12.7319996 124.372,12.82 C124.624001,12.9080004 124.829999,13.0239993 124.99,13.168 C125.150001,13.3120007 125.276,13.4739991 125.368,13.654 C125.46,13.8340009 125.526,14.0159991 125.566,14.2 C125.606,14.3840009 125.63,14.5619991 125.638,14.734 C125.646,14.9060009 125.65,15.0559994 125.65,15.184 L125.65,19 L125.194,19 L125.194,15.1 C125.194,14.9479992 125.182,14.7560012 125.158,14.524 C125.134,14.2919988 125.064001,14.0700011 124.948,13.858 C124.831999,13.6459989 124.656001,13.4640008 124.42,13.312 C124.183999,13.1599992 123.858002,13.084 123.442,13.084 C123.089998,13.084 122.778001,13.1479994 122.506,13.276 C122.233999,13.4040006 122.002001,13.5819989 121.81,13.81 C121.617999,14.0380011 121.472001,14.3099984 121.372,14.626 C121.272,14.9420016 121.222,15.2879981 121.222,15.664 L121.222,19 L120.766,19 L120.766,12.832 Z M126.05,12.832 L126.59,12.832 L128.882,18.46 L130.994,12.832 L131.51,12.832 L128.87,19.66 C128.741999,19.9640015 128.624001,20.2259989 128.516,20.446 C128.407999,20.6660011 128.286001,20.8279995 128.15,20.932 C127.989999,21.0600006 127.800001,21.1379999 127.58,21.166 C127.359999,21.1940001 127.070002,21.208 126.71,21.208 L126.71,20.812 C127.038002,20.812 127.293999,20.7860003 127.478,20.734 C127.662001,20.6819997 127.833999,20.5760008 127.994,20.416 C128.082,20.3279996 128.174,20.1660012 128.27,19.93 C128.366,19.6939988 128.485999,19.372002 128.63,18.964 L126.05,12.832 Z M132.234,10.432 L133.374,10.432 L133.374,19 L132.234,19 L132.234,10.432 Z M134.926,12.796 L135.886,12.796 L135.886,13.78 L135.91,13.78 C136.334002,13.0279962 137.005995,12.652 137.926,12.652 C138.334002,12.652 138.673999,12.7079994 138.946,12.82 C139.218001,12.9320006 139.437999,13.087999 139.606,13.288 C139.774001,13.488001 139.892,13.7259986 139.96,14.002 C140.028,14.2780014 140.062,14.5839983 140.062,14.92 L140.062,19 L139.042,19 L139.042,14.8 C139.042,14.4159981 138.930001,14.1120011 138.706,13.888 C138.481999,13.6639989 138.174002,13.552 137.782,13.552 C137.469998,13.552 137.200001,13.5999995 136.972,13.696 C136.743999,13.7920005 136.554001,13.9279991 136.402,14.104 C136.249999,14.2800009 136.136,14.4859988 136.06,14.722 C135.984,14.9580012 135.946,15.2159986 135.946,15.496 L135.946,19 L134.926,19 L134.926,12.796 Z M142.022,17.044 C142.03,17.2680011 142.082,17.4579992 142.178,17.614 C142.274,17.7700008 142.399999,17.8939995 142.556,17.986 C142.712001,18.0780005 142.887999,18.1439998 143.084,18.184 C143.280001,18.2240002 143.481999,18.244 143.69,18.244 C143.850001,18.244 144.017999,18.2320001 144.194,18.208 C144.370001,18.1839999 144.531999,18.1400003 144.68,18.076 C144.828001,18.0119997 144.95,17.9180006 145.046,17.794 C145.142,17.6699994 145.19,17.512001 145.19,17.32 C145.19,17.0559987 145.090001,16.8560007 144.89,16.72 C144.689999,16.5839993 144.440001,16.4740004 144.14,16.39 C143.839998,16.3059996 143.514002,16.2300003 143.162,16.162 C142.809998,16.0939997 142.484001,15.9980006 142.184,15.874 C141.883998,15.7499994 141.634001,15.5760011 141.434,15.352 C141.233999,15.1279989 141.134,14.816002 141.134,14.416 C141.134,14.1039984 141.203999,13.8360011 141.344,13.612 C141.484001,13.3879989 141.663999,13.2060007 141.884,13.066 C142.104001,12.9259993 142.351999,12.8220003 142.628,12.754 C142.904001,12.6859997 143.177999,12.652 143.45,12.652 C143.802002,12.652 144.125999,12.6819997 144.422,12.742 C144.718001,12.8020003 144.979999,12.9059993 145.208,13.054 C145.436001,13.2020007 145.617999,13.4019987 145.754,13.654 C145.890001,13.9060013 145.97,14.2199981 145.994,14.596 L144.974,14.596 C144.958,14.395999 144.906,14.2300007 144.818,14.098 C144.73,13.9659993 144.618001,13.8600004 144.482,13.78 C144.345999,13.6999996 144.196001,13.6420002 144.032,13.606 C143.867999,13.5699998 143.702001,13.552 143.534,13.552 C143.381999,13.552 143.228001,13.5639999 143.072,13.588 C142.915999,13.6120001 142.774001,13.6539997 142.646,13.714 C142.517999,13.7740003 142.414,13.8539995 142.334,13.954 C142.254,14.0540005 142.214,14.1839992 142.214,14.344 C142.214,14.5200009 142.275999,14.6659994 142.4,14.782 C142.524001,14.8980006 142.681999,14.9939996 142.874,15.07 C143.066001,15.1460004 143.281999,15.2099997 143.522,15.262 C143.762001,15.3140003 144.001999,15.3679997 144.242,15.424 C144.498001,15.4800003 144.747999,15.5479996 144.992,15.628 C145.236001,15.7080004 145.451999,15.8139993 145.64,15.946 C145.828001,16.0780007 145.979999,16.243999 146.096,16.444 C146.212001,16.644001 146.27,16.8919985 146.27,17.188 C146.27,17.5640019 146.192001,17.8759988 146.036,18.124 C145.879999,18.3720012 145.676001,18.5719992 145.424,18.724 C145.171999,18.8760008 144.888002,18.9819997 144.572,19.042 C144.255998,19.1020003 143.942002,19.132 143.63,19.132 C143.285998,19.132 142.958002,19.0960004 142.646,19.024 C142.333998,18.9519996 142.058001,18.8340008 141.818,18.67 C141.577999,18.5059992 141.386001,18.2900013 141.242,18.022 C141.097999,17.7539987 141.018,17.4280019 141.002,17.044 L142.022,17.044 Z M148.278,11.68 L147.258,11.68 L147.258,10.432 L148.278,10.432 L148.278,11.68 Z M147.258,12.796 L148.278,12.796 L148.278,19 L147.258,19 L147.258,12.796 Z M155.014,18.472 C155.014,19.4880051 154.782002,20.2479975 154.318,20.752 C153.853998,21.2560025 153.126005,21.508 152.134,21.508 C151.845999,21.508 151.552001,21.4760003 151.252,21.412 C150.951998,21.3479997 150.680001,21.2440007 150.436,21.1 C150.191999,20.9559993 149.990001,20.7680012 149.83,20.536 C149.669999,20.3039988 149.582,20.0200017 149.566,19.684 L150.586,19.684 C150.594,19.8680009 150.651999,20.0239994 150.76,20.152 C150.868001,20.2800006 150.999999,20.3839996 151.156,20.464 C151.312001,20.5440004 151.481999,20.6019998 151.666,20.638 C151.850001,20.6740002 152.025999,20.692 152.194,20.692 C152.530002,20.692 152.813999,20.6340006 153.046,20.518 C153.278001,20.4019994 153.469999,20.242001 153.622,20.038 C153.774001,19.833999 153.884,19.5880014 153.952,19.3 C154.02,19.0119986 154.054,18.6960017 154.054,18.352 L154.054,17.944 L154.03,17.944 C153.853999,18.3280019 153.588002,18.6099991 153.232,18.79 C152.875998,18.9700009 152.498002,19.06 152.098,19.06 C151.633998,19.06 151.230002,18.9760008 150.886,18.808 C150.541998,18.6399992 150.254001,18.4140014 150.022,18.13 C149.789999,17.8459986 149.616001,17.5140019 149.5,17.134 C149.383999,16.7539981 149.326,16.3520021 149.326,15.928 C149.326,15.5599982 149.374,15.1820019 149.47,14.794 C149.566,14.4059981 149.725999,14.0540016 149.95,13.738 C150.174001,13.4219984 150.469998,13.162001 150.838,12.958 C151.206002,12.753999 151.657997,12.652 152.194,12.652 C152.586002,12.652 152.945998,12.7379991 153.274,12.91 C153.602002,13.0820009 153.857999,13.3399983 154.042,13.684 L154.054,13.684 L154.054,12.796 L155.014,12.796 L155.014,18.472 Z M152.158,18.172 C152.494002,18.172 152.779999,18.1020007 153.016,17.962 C153.252001,17.8219993 153.441999,17.6380011 153.586,17.41 C153.730001,17.1819989 153.836,16.9240014 153.904,16.636 C153.972,16.3479986 154.006,16.0600014 154.006,15.772 C154.006,15.4999986 153.974,15.2320013 153.91,14.968 C153.846,14.7039987 153.744001,14.4660011 153.604,14.254 C153.463999,14.0419989 153.282001,13.8720006 153.058,13.744 C152.833999,13.6159994 152.562002,13.552 152.242,13.552 C151.913998,13.552 151.634001,13.6139994 151.402,13.738 C151.169999,13.8620006 150.980001,14.027999 150.832,14.236 C150.683999,14.444001 150.576,14.6839986 150.508,14.956 C150.44,15.2280014 150.406,15.5119985 150.406,15.808 C150.406,16.0880014 150.434,16.3679986 150.49,16.648 C150.546,16.9280014 150.641999,17.1819989 150.778,17.41 C150.914001,17.6380011 151.093999,17.8219993 151.318,17.962 C151.542001,18.1020007 151.821998,18.172 152.158,18.172 Z M156.35,10.432 L157.37,10.432 L157.37,13.708 L157.394,13.708 C157.474,13.515999 157.585999,13.3540007 157.73,13.222 C157.874001,13.0899993 158.035999,12.9820004 158.216,12.898 C158.396001,12.8139996 158.583999,12.7520002 158.78,12.712 C158.976001,12.6719998 159.165999,12.652 159.35,12.652 C159.758002,12.652 160.097999,12.7079994 160.37,12.82 C160.642001,12.9320006 160.861999,13.087999 161.03,13.288 C161.198001,13.488001 161.316,13.7259986 161.384,14.002 C161.452,14.2780014 161.486,14.5839983 161.486,14.92 L161.486,19 L160.466,19 L160.466,14.8 C160.466,14.4159981 160.354001,14.1120011 160.13,13.888 C159.905999,13.6639989 159.598002,13.552 159.206,13.552 C158.893998,13.552 158.624001,13.5999995 158.396,13.696 C158.167999,13.7920005 157.978001,13.9279991 157.826,14.104 C157.673999,14.2800009 157.56,14.4859988 157.484,14.722 C157.408,14.9580012 157.37,15.2159986 157.37,15.496 L157.37,19 L156.35,19 L156.35,10.432 Z M164.238,12.796 L165.474,12.796 L165.474,13.696 L164.238,13.696 L164.238,17.548 C164.238,17.6680006 164.248,17.7639996 164.268,17.836 C164.288,17.9080004 164.326,17.9639998 164.382,18.004 C164.438,18.0440002 164.515999,18.0699999 164.616,18.082 C164.716,18.0940001 164.845999,18.1 165.006,18.1 L165.474,18.1 L165.474,19 L164.694,19 C164.429999,19 164.204001,18.9820002 164.016,18.946 C163.827999,18.9099998 163.676001,18.8440005 163.56,18.748 C163.443999,18.6519995 163.358,18.5160009 163.302,18.34 C163.246,18.1639991 163.218,17.9320014 163.218,17.644 L163.218,13.696 L162.162,13.696 L162.162,12.796 L163.218,12.796 L163.218,10.936 L164.238,10.936 L164.238,12.796 Z" id="SymfonyInsight" fill="#000000"></path>
            <rect id="Rectangle" fill="#F98C34" x="65" y="26" width="125" height="18" rx="4"></rect>
            <g id="Silver-medal">
                <use fill="black" fill-opacity="1" filter="url(#filter-4)" xlink:href="#path-3"></use>
                <use fill="#FFFFFF" fill-rule="evenodd" xlink:href="#path-3"></use>
            </g>
        </g>
    </g>
</svg>